<mxfile host="app.diagrams.net" modified="2023-01-06T08:17:46.048Z" agent="5.0 (Macintosh; Intel Mac OS X 10_12_6) AppleWebKit/537.36 (KHTML, like Gecko) Chrome/103.0.0.0 Safari/537.36" version="20.8.1" etag="Jb6R_XsNKleNjcrTpO-y" type="github">
  <diagram id="c9iqwaSZSdr41dfT_dBc" name="第 1 页">
    <mxGraphModel dx="863" dy="584" grid="1" gridSize="10" guides="1" tooltips="1" connect="1" arrows="1" fold="1" page="1" pageScale="1" pageWidth="827" pageHeight="1169" math="0" shadow="0">
      <root>
        <mxCell id="0" />
        <mxCell id="1" parent="0" />
        <mxCell id="QcCqp50l1s5BhglePW6Y-2" value="&lt;div style=&quot;&quot;&gt;&lt;br&gt;&lt;/div&gt;" style="rounded=0;whiteSpace=wrap;html=1;align=center;" vertex="1" parent="1">
          <mxGeometry x="100" y="250" width="100" height="280" as="geometry" />
        </mxCell>
        <mxCell id="QcCqp50l1s5BhglePW6Y-3" value="" style="rounded=0;whiteSpace=wrap;html=1;" vertex="1" parent="1">
          <mxGeometry x="250" y="250" width="410" height="280" as="geometry" />
        </mxCell>
        <mxCell id="QcCqp50l1s5BhglePW6Y-4" value="应用服务" style="text;html=1;strokeColor=none;fillColor=none;align=center;verticalAlign=middle;whiteSpace=wrap;rounded=0;" vertex="1" parent="1">
          <mxGeometry x="120" y="260" width="60" height="30" as="geometry" />
        </mxCell>
      </root>
    </mxGraphModel>
  </diagram>
</mxfile>
